<?xml version="1.0" encoding="UTF-8"?><!DOCTYPE svg  PUBLIC '-//W3C//DTD SVG 1.0//EN'  'http://www.w3.org/TR/2001/REC-SVG-20010904/DTD/svg10.dtd'><svg width="180" height="150" viewBox="0 0 180 150" xmlns="http://www.w3.org/2000/svg" xmlns:xlink="http://www.w3.org/1999/xlink"><view id="blue--flat-deviantart" viewBox="30 0 30 30"/><svg width="30" height="30" viewBox="-6 0 32 32" x="30"><title>path33</title><path d="M.195 32h5.817l.58-.586 2.746-5.232.863-.582H20v-7.99h-5.387l-.48-.58L20 5.82V0h-5.818l-.58.586-2.747 5.232-.863.582h-9.8v7.99H5.58l.48.585L.192 26.182V32z" fill="#2B5672" fill-rule="nonzero"/></svg><view id="blue--flat-dropbox" viewBox="60 90 30 30"/><svg width="30" height="30" viewBox="0 -8 189 189" x="60" y="90"><path d="M149.225 64.693l38.095-29.19L132.09.047 93.38 31.734l55.795 32.946-55.768 34.822 38.685 32.542 56.673-36.326-39.538-31.025zM.015 95.6l37.7-29.85 55.652 33.756-38.328 31.46L.013 95.6zM0 35.365L54.728 0l38.64 31.735L37.703 65.74 0 35.365zm38.244 91.92v12.02l55.267 32.508 55.566-32.693v-11.834l-16.47 10.565-38.968-31.71-38.845 31.698-16.55-10.552z" fill="#2B5672" fill-rule="evenodd"/></svg><view id="blue--flat-facebook" viewBox="0 30 30 30"/><svg preserveAspectRatio="xMidYMid" width="30" height="30" viewBox="-11 0 40 40" y="30"><defs><style>.accls-1{fill:#2b5672;fill-rule:evenodd}</style></defs><path d="M.006 20.003h3.996L4 40h8l-.046-19.997h5.342L18 13h-6l-.005-3.332c0-.528.023-.934.07-1.22.047-.284.154-.562.32-.832.168-.27.433-.46.794-.563C13.54 6.95 14.397 7 15 7h3l-.04-7h-5.323C9.557 0 7.35.757 6.01 2.27 4.673 3.786 4.003 6.016 4.003 8.96L4 13H0l.006 7.003z" class="accls-1"/></svg><view id="blue--flat-flickr" viewBox="30 30 30 30"/><svg width="30" height="30" viewBox="0 -7 26 26" x="30" y="30"><g fill="#2B5672" fill-rule="evenodd"><path d="M12 6A6 6 0 1 1 0 6a6 6 0 0 1 12 0M26 6a6 6 0 1 1-12 0 6 6 0 0 1 12 0"/></g></svg><view id="blue--flat-google-drive" viewBox="60 0 30 30"/><svg width="30" height="30" viewBox="0 -2 32 32" x="60"><title>Slice 1</title><g fill="#2B5672" fill-rule="evenodd"><path d="M12 0h9.5L32 18h-9.5L12 0M5 27l-5-8L10.5 1 15 9 5 27M27.5 28l4.5-8H11l-4.5 8h21"/></g></svg><view id="blue--flat-google-photos" viewBox="60 30 30 30"/><svg width="30" height="30" viewBox="0 0 32 32" x="60" y="30"><title>Slice 1</title><g fill="#2B5672" fill-rule="evenodd"><path d="M15.523 12.36V7.615H7.615l-7.18 7.367a.317.317 0 0 0 .222.54H12.36l2.214-.948.95-2.214M15.523 19.352l-.95-2.214-2.213-.948H7.615v7.907l7.367 7.18c.056.06.136.095.224.095a.318.318 0 0 0 .317-.317V19.352M17.138 14.574l2.214.95h4.745v-7.91L16.73.435a.316.316 0 0 0-.54.222v11.705l.948 2.214M24.097 24.097l7.18-7.367a.304.304 0 0 0 .095-.224.317.317 0 0 0-.317-.316H19.352l-2.214.948-.948 2.214v4.745h7.907"/></g></svg><view id="blue--flat-instagram" viewBox="0 60 30 30"/><svg width="30" height="30" viewBox="0 0 16 16" y="60"><defs><style>.agcls-1{fill:#2b5672;fill-rule:evenodd}</style></defs><path id="agInsta_new" data-name="Insta new" class="agcls-1" d="M8 1.44c2.136 0 2.39.01 3.233.048a4.427 4.427 0 0 1 1.486.275 2.478 2.478 0 0 1 .92.6 2.48 2.48 0 0 1 .6.92 4.43 4.43 0 0 1 .274 1.485c.038.844.047 1.1.047 3.233s-.007 2.39-.046 3.234a4.43 4.43 0 0 1-.275 1.486 2.65 2.65 0 0 1-1.52 1.518 4.43 4.43 0 0 1-1.484.275c-.843.038-1.1.047-3.233.047s-2.39-.008-3.233-.047a4.43 4.43 0 0 1-1.485-.275 2.48 2.48 0 0 1-.92-.6 2.478 2.478 0 0 1-.6-.92 4.427 4.427 0 0 1-.275-1.485c-.04-.844-.05-1.097-.05-3.233s.01-2.39.048-3.233a4.427 4.427 0 0 1 .275-1.485 2.48 2.48 0 0 1 .6-.92 2.48 2.48 0 0 1 .92-.6 4.427 4.427 0 0 1 1.485-.275C5.61 1.45 5.864 1.44 8 1.44M8 0C5.827 0 5.555.01 4.7.048A5.872 5.872 0 0 0 2.76.42a3.92 3.92 0 0 0-1.417.923A3.92 3.92 0 0 0 .42 2.76 5.872 5.872 0 0 0 .048 4.7C.008 5.555 0 5.827 0 8s.01 2.445.048 3.3a5.872 5.872 0 0 0 .372 1.94 3.922 3.922 0 0 0 .923 1.417 3.92 3.92 0 0 0 1.417.923 5.872 5.872 0 0 0 1.942.372C5.555 15.992 5.827 16 8 16s2.445-.01 3.3-.048a5.872 5.872 0 0 0 1.942-.372 4.09 4.09 0 0 0 2.34-2.34 5.872 5.872 0 0 0 .372-1.942C15.99 10.445 16 10.173 16 8s-.01-2.445-.048-3.3a5.872 5.872 0 0 0-.372-1.94 3.92 3.92 0 0 0-.923-1.417A3.922 3.922 0 0 0 13.24.42 5.872 5.872 0 0 0 11.3.048C10.445.008 10.173 0 8 0zm0 3.892A4.108 4.108 0 1 0 12.108 8 4.108 4.108 0 0 0 8 3.892zm0 6.775A2.667 2.667 0 1 1 10.667 8 2.667 2.667 0 0 1 8 10.667zm5.23-6.937a.96.96 0 1 1-.96-.96.96.96 0 0 1 .96.96z"/></svg><view id="blue--flat-picasa" viewBox="30 60 30 30"/><svg height="30" version="1" viewBox="0 0 32 32" width="30" x="30" y="60"><g fill="#2B5672"><path d="M22.592 1.413A15.85 15.85 0 0 0 15.996-.02c-1.907 0-3.782.365-5.587 1.042L22.59 12.08V1.412zM7.762 29.732V15.977l-6.61 6.007c1.283 3.216 3.622 5.943 6.61 7.748zM0 16.07c0 1.374.208 2.77.58 4.155L14.76 7.34c-.27-.243-5.87-5.327-6.053-5.493C3.337 4.604 0 10.037 0 16.07zM9.443 23.02v7.634A15.94 15.94 0 0 0 14.52 32h2.935c5.526-.515 10.46-3.92 12.91-8.98H9.444zM24.278 2.424v18.913h6.808c.596-1.704.908-3.476.908-5.267 0-5.56-2.956-10.75-7.716-13.646z"/></g></svg><view id="blue--flat-vimeo" viewBox="60 60 30 30"/><svg id="aiLayer_1" viewBox="0 0 32 32" width="30" height="30" x="60" y="60"><style>.aist0{fill:#2b5672}</style><path class="aist0" d="M32 8.6c-.1 3.1-2.3 7.4-6.5 12.8-4.3 5.6-8 8.5-11 8.5-1.9 0-3.4-1.7-4.7-5.2-.9-3.2-1.7-6.3-2.6-9.5-1-3.4-2-5.2-3.1-5.2-.2 0-1.1.5-2.5 1.5L0 9.6c1.6-1.4 3.1-2.8 4.7-4.2 2.1-1.8 3.7-2.8 4.7-2.9 2.5-.2 4 1.5 4.6 5.1.6 3.9 1.1 6.4 1.3 7.3.7 3.3 1.5 4.9 2.4 4.9.7 0 1.7-1.1 3-3.2s2.1-3.7 2.2-4.8c.2-1.8-.5-2.7-2.2-2.7-.8 0-1.6.2-2.4.5 1.6-5.1 4.6-7.6 9-7.5 3.3.2 4.9 2.3 4.7 6.5z"/></svg><view id="blue--flat-youtube" viewBox="90 0 30 30"/><svg id="ajLayer_1" viewBox="0 0 32 32" width="30" height="30" x="90"><style>.ajst0{fill:#2b5672}</style><path class="ajst0" d="M31.7 9.6s-.3-2.2-1.3-3.2c-1.2-1.3-2.6-1.3-3.2-1.4-4.5-.2-11.2-.2-11.2-.2s-6.7 0-11.2.3c-.6.1-2 .1-3.2 1.4C.6 7.5.3 9.7.3 9.7S0 12.2 0 14.8v2.4c0 2.6.3 5.2.3 5.2s.3 2.2 1.3 3.2c1.2 1.3 2.8 1.2 3.5 1.4 2.6.2 10.9.2 10.9.2s6.7 0 11.2-.3c.6-.1 2-.1 3.2-1.4 1-1 1.3-3.2 1.3-3.2s.3-2.6.3-5.2v-2.4c0-2.5-.3-5.1-.3-5.1zm-19 10.5v-9l8.6 4.5-8.6 4.5z" id="ajLozenge"/></svg><view id="color--flat-deviantart" viewBox="90 30 30 30"/><svg width="30" height="30" viewBox="-6 0 32 32" x="90" y="30"><title>path33</title><path d="M.002 32H5.82l.58-.586 2.745-5.232.863-.582h9.8v-7.99H14.42l-.48-.58 5.867-11.21V0H13.99l-.582.586-2.746 5.232L9.8 6.4H0v7.99h5.387l.48.585L0 26.182V32z" fill="#05CC47" fill-rule="nonzero"/></svg><view id="color--flat-dropbox" viewBox="90 60 30 30"/><svg width="30" height="30" viewBox="0 -8 189 189" x="90" y="60"><title>Slice 1</title><path d="M149.225 64.693l38.095-29.19L132.09.047 93.38 31.734l55.795 32.946-55.768 34.822 38.685 32.542 56.673-36.326-39.538-31.025zM.015 95.6l37.7-29.85 55.652 33.756-38.328 31.46L.013 95.6zM0 35.365L54.728 0l38.64 31.735L37.703 65.74 0 35.365zm38.244 91.92v12.02l55.267 32.508 55.566-32.693v-11.834l-16.47 10.565-38.968-31.71-38.845 31.698-16.55-10.552z" fill="#007BE9" fill-rule="evenodd"/></svg><view id="color--flat-facebook" viewBox="0 90 30 30"/><svg preserveAspectRatio="xMidYMid" width="30" height="30" viewBox="-11 0 40 40" y="90"><defs><style>.amcls-1{fill:#3b5998;fill-rule:evenodd}</style></defs><path d="M.006 20.003h3.996L4 40h8l-.046-19.997h5.342L18 13h-6l-.005-3.332c0-.528.023-.934.07-1.22.047-.284.154-.562.32-.832.168-.27.433-.46.794-.563C13.54 6.95 14.397 7 15 7h3l-.04-7h-5.323C9.557 0 7.35.757 6.01 2.27 4.673 3.786 4.003 6.016 4.003 8.96L4 13H0l.006 7.003z" class="amcls-1"/></svg><view id="color--flat-flickr" viewBox="30 90 30 30"/><svg width="30" height="30" viewBox="0 -7 26 26" x="30" y="90"><title>Slice 1</title><g fill="none" fill-rule="evenodd"><path d="M12 6A6 6 0 1 1 0 6a6 6 0 0 1 12 0" fill="#1E6BDA"/><path d="M26 6a6 6 0 1 1-12 0 6 6 0 0 1 12 0" fill="#FF0083"/></g></svg><view id="color--flat-google-photos" viewBox="0 0 30 30"/><svg width="30" height="30" viewBox="0 0 32 32"><title>Slice 1</title><defs><path id="aoa" d="M15.9.57c.063-.06.1-.143.1-.237A.334.334 0 0 0 15.667 0H0v8.333h8.333L15.9.57z"/><path id="aoc" d="M0 0v8.333h8.333L0 0z"/><path id="aoe" d="M8.333 8.333L15.9.57c.063-.06.1-.143.1-.237L15.983.25l-.08.153-7.57 7.764H0v.166h8.333"/><path id="aog" d="M0 0v.167l8.167 8.166h.166L0 0"/><path id="aoi" d="M15.983.417L16 .333A.334.334 0 0 0 15.667 0H0v.167h15.667c.153 0 .28.106.316.25"/><path id="aok" d="M8.43 15.9c.06.063.143.1.237.1.183 0 .333-.15.333-.333V0H.667v8.333L8.43 15.9z"/><path id="aom" d="M.667 0v8.333L9 0H.667z"/><path id="aoo" d="M8.667 7.833a.32.32 0 0 1-.237-.1L.75.25.667.333 8.43 7.9c.06.063.143.1.237.1C8.85 8 9 7.85 9 7.667V7.5c0 .183-.15.333-.333.333"/><path id="aoq" d="M9 .167h-.167L.667 8.333V8.5L9 .167"/><path id="aos" d="M.06 8.476A.323.323 0 0 1 .1 8.43L7.667.667H16V9H.333a.333.333 0 0 1-.273-.143v-.38z"/><path id="aou" d="M9 9V.667H.667L9 9z"/><path id="aow" d="M.06 8.476A.323.323 0 0 1 .1 8.43L7.667.667H16v.166H7.667L.097 8.597l-.037.07v-.19"/><path id="aoy" d="M.06 1.024c.06.086.16.143.273.143H16V1H.333A.324.324 0 0 1 .06.85v.174"/><path id="aoA" d="M9 9v-.167L.833.667H.667L9 9"/><path id="aoC" d="M.57.1A.323.323 0 0 0 .333 0 .334.334 0 0 0 0 .333V16h8.333V7.667L.57.1z"/><path id="aoE" d="M.57.1A.323.323 0 0 0 .333 0 .334.334 0 0 0 0 .333V.5C0 .317.15.167.333.167a.32.32 0 0 1 .237.1L8.163 7.67l.17-.003L.57.1"/><path id="aoG" d="M8.333 9V.667L0 9h8.333z"/><path id="aoI" d="M0 8.833h.167L8.333.667l-.17.003L0 8.833"/><path id="aoK" d="M3 3L4 .667 5 3l2.333 1L5 5 4 7.333 3 5 .667 4 3 3z"/></defs><g fill="none" fill-rule="evenodd"><g transform="translate(16 16)"><mask id="aob" fill="#fff"><use xlink:href="#aoa"/></mask><path d="M0 0h16v8.333H0V0z" fill="#4285F4" mask="url(#aob)"/></g><g transform="translate(16 16)"><mask id="aod" fill="#fff"><use xlink:href="#aoc"/></mask><path d="M0 0h8.333v8.333H0V0z" fill="#3367D6" mask="url(#aod)"/></g><g transform="translate(16 16)"><mask id="aof" fill="#fff"><use xlink:href="#aoe"/></mask><path d="M15.944.324l-.04.08-7.57 7.763h-.167l.166.166L15.9.57c.063-.06.1-.143.1-.237l-.017.084a.317.317 0 0 0-.04-.093" fill="#3C74CE" mask="url(#aof)"/><path d="M8 8.167H0v.166h8.333-.166L8 8.167" fill="#305CB6" mask="url(#aof)"/></g><g transform="translate(16 16)"><mask id="aoh" fill="#fff"><use xlink:href="#aog"/></mask><path d="M.167.167H0l8 8h.167l-8-8" fill="#3262C6" mask="url(#aoh)"/><path d="M8.167 8.167H8l.167.166h.166l-.166-.166" fill="#2F58A9" mask="url(#aoh)"/></g><g transform="translate(16 16)"><mask id="aoj" fill="#fff"><use xlink:href="#aoi"/></mask><path d="M15.667 0H0l.167.167h15.5c.118 0 .22.063.277.157l.04-.074.016.083A.334.334 0 0 0 15.667 0" fill="#689DF7" mask="url(#aoj)"/><path d="M15.983.25l-.04.074c.02.03.032.06.04.093L16 .333 15.983.25" fill="#6390D8" mask="url(#aoj)"/><path d="M0 0v.167h.167L0 0" fill="#5B81D1" mask="url(#aoj)"/></g><g transform="translate(7 16)"><mask id="aol" fill="#fff"><use xlink:href="#aok"/></mask><path d="M.667 0H9v16H.667V0z" fill="#8BC34A" mask="url(#aol)"/></g><g transform="translate(7 16)"><mask id="aon" fill="#fff"><use xlink:href="#aom"/></mask><path d="M.667 0H9v8.333H.667V0z" fill="#0F9D58" mask="url(#aon)"/></g><g transform="translate(7 24)"><mask id="aop" fill="#fff"><use xlink:href="#aoo"/></mask><path d="M.834.332L.75.416 8.43 7.9c.06.063.143.1.237.1C8.85 8 9 7.85 9 7.667V7.5c0 .183-.15.333-.333.333a.32.32 0 0 1-.237-.1L.834.333" fill="#83B346" mask="url(#aop)"/></g><g transform="translate(7 16)"><mask id="aor" fill="#fff"><use xlink:href="#aoq"/></mask><path d="M9 .167h-.167L.75 8.25l.084.082L9 .167" fill="#87BB48" mask="url(#aor)"/><path d="M8.833.167L.667 8.333 8.833.167" fill="#119755" mask="url(#aor)"/><path d="M.667 8.333V8.5l.084-.084-.083-.083" fill="#F6F4F4" mask="url(#aor)"/><path d="M.75 8.25l-.083.083.084.083.084-.084L.75 8.25" fill="#7FAC44" mask="url(#aor)"/></g><g transform="translate(0 7)"><mask id="aot" fill="#fff"><use xlink:href="#aos"/></mask><path d="M.06.64h15.96v8.4H.06V.64z" fill="#FFBC00" mask="url(#aot)"/></g><g transform="translate(7 7)"><mask id="aov" fill="#fff"><use xlink:href="#aou"/></mask><path d="M.667.667H9V9H.667V.667z" fill="#FF9800" mask="url(#aov)"/></g><g transform="translate(0 7)"><mask id="aox" fill="#fff"><use xlink:href="#aow"/></mask><path d="M7.667.667L.1 8.43a.323.323 0 0 0-.1.237l.017.083.08-.153L7.667.833h.166L7.667.667" fill="#FFC933" mask="url(#aox)"/><path d="M16 .667H7.833L8 .833h8V.667" fill="#FFAD33" mask="url(#aox)"/></g><g transform="translate(0 15)"><mask id="aoz" fill="#fff"><use xlink:href="#aoy"/></mask><path d="M.014.763L0 .833c0 .184.15.334.333.334h7.334V1H16 .33.325A.335.335 0 0 1 .014.763" fill="#F6F4F4" mask="url(#aoz)"/><path d="M16 1l-.167.167H16V1" fill="#87BB48" mask="url(#aoz)"/><path d="M16 1H7.667v.167h8.166L16 1" fill="#119755" mask="url(#aoz)"/><path d="M16 1H.333 16M.326 1h.002-.002M.016.75L.015.763C.054.897.18.997.326 1a.328.328 0 0 1-.31-.25" fill="#F6B402" mask="url(#aoz)"/></g><g transform="translate(7 7)"><mask id="aoB" fill="#fff"><use xlink:href="#aoA"/></mask><path d="M1 .833H.833L9 9v-.167l-8-8" fill="#EC8C04" mask="url(#aoB)"/><path d="M.833.667H.667l.166.166H1L.833.667" fill="#EC9F31" mask="url(#aoB)"/></g><g transform="translate(16)"><mask id="aoD" fill="#fff"><use xlink:href="#aoC"/></mask><path d="M0 0h8.333v16H0V0z" fill="#DB4437" mask="url(#aoD)"/></g><g transform="translate(16)"><mask id="aoF" fill="#fff"><use xlink:href="#aoE"/></mask><path d="M.333 0A.334.334 0 0 0 0 .333V.5C0 .317.15.167.333.167a.32.32 0 0 1 .237.1L8.163 7.67l.17-.003L.57.1A.323.323 0 0 0 .333 0" fill="#E2695F" mask="url(#aoF)"/></g><g transform="translate(16 7)"><mask id="aoH" fill="#fff"><use xlink:href="#aoG"/></mask><path d="M0 .667h8.333V9H0V.667z" fill="#AD1357" mask="url(#aoH)"/></g><g transform="translate(16 7)"><mask id="aoJ" fill="#fff"><use xlink:href="#aoI"/></mask><path d="M8.333.667l-.17.003L0 8.833h.167L8.333.667" fill="#E2695F" mask="url(#aoJ)"/></g><path d="M16.167 15.833H16V16l.167-.167" fill="#CB4135"/><path d="M24.333 15.833h-8.166L16 16h8.333v-.167" fill="#A21652"/><g transform="translate(12 12)"><mask id="aoL" fill="#fff"><use xlink:href="#aoK"/></mask><path d="M.667.667h6.667v6.667H.667V.667z" fill="#F1F1F1" mask="url(#aoL)"/></g></g></svg><view id="color--flat-picasa" viewBox="90 90 30 30"/><svg height="30" version="1" viewBox="0 0 32 32" width="30" x="90" y="90"><path d="M22.592 1.413A15.85 15.85 0 0 0 15.996-.02c-1.907 0-3.782.365-5.587 1.042L22.59 12.08V1.412z" fill="#E24444"/><path d="M7.762 29.732V15.977l-6.61 6.007c1.283 3.216 3.622 5.943 6.61 7.748z" fill="#2175BB"/><path d="M0 16.07c0 1.374.208 2.77.58 4.155L14.76 7.34c-.27-.243-5.87-5.327-6.053-5.493C3.337 4.604 0 10.037 0 16.07z" fill="#824DBA"/><path d="M9.443 23.02v7.634A15.94 15.94 0 0 0 14.52 32h2.935c5.526-.515 10.46-3.92 12.91-8.98H9.444z" fill="#4AAE48"/><path d="M24.278 2.424v18.913h6.808c.596-1.704.908-3.476.908-5.267 0-5.56-2.956-10.75-7.716-13.646z" fill="#F7BD1B"/></svg><view id="color--flat-vimeo" viewBox="120 0 30 30"/><svg id="aqLayer_1" viewBox="0 -7.14 120 119.98" width="30" height="30" x="120"><style>.aqst0{fill:#1ab7ea}</style><path class="aqst0" d="M119.6 24.9c-.5 11.6-8.6 27.5-24.3 47.7-16.3 21-30 31.6-41.2 31.6-7 0-12.8-6.4-17.6-19.3-3.2-11.8-6.4-23.5-9.6-35.3-3.6-12.8-7.4-19.3-11.5-19.3-.9 0-4 1.9-9.4 5.6L.4 28.7c5.9-5.2 11.7-10.3 17.4-15.5C25.6 6.4 31.5 2.9 35.4 2.5c9.3-.9 15 5.5 17.1 19 2.3 14.7 3.9 23.8 4.8 27.3C60.1 61 63 67.1 66.2 67.1c2.5 0 6.2-3.9 11.2-11.8 5-7.9 7.7-13.9 8-18 .7-6.8-2-10.2-8-10.2-2.9 0-5.8.7-8.8 2C74.5 9.8 85.7.5 102.3 1c12.2.4 18 8.3 17.3 23.9z"/></svg><view id="color--flat-youtube" viewBox="120 30 30 30"/><svg id="arYouTube_Icon" viewBox="0 -151.55 1024 1024.1" width="30" height="30" x="120" y="30"><style>.arst0{fill:#FFF}.arst1{opacity:.12;fill-rule:evenodd;clip-rule:evenodd;fill:#420000}.arst2{fill:url(#arSVGID_1_)}</style><path id="arTriangle" class="arst0" d="M407 493l276-143-276-144v287z"/><path id="arThe_Sharpness" class="arst1" d="M407 206l242 161.6 34-17.6-276-144z"/><g id="arLozenge"><linearGradient id="arSVGID_1_" gradientUnits="userSpaceOnUse" x1="512.499" y1="1.296" x2="512.499" y2="719.719"><stop offset="0" stop-color="#e52d27"/><stop offset="1" stop-color="#bf171d"/></linearGradient><path class="arst2" d="M1013 156.3s-10-70.4-40.6-101.4C933.6 14.2 890 14 870.1 11.6 727.1 1.3 512.7 1.3 512.7 1.3h-.4s-214.4 0-357.4 10.3C135 14 91.4 14.2 52.6 54.9 22 85.9 12 156.3 12 156.3S1.8 238.9 1.8 321.6v77.5C1.8 481.8 12 564.4 12 564.4s10 70.4 40.6 101.4c38.9 40.7 89.9 39.4 112.6 43.7 81.7 7.8 347.3 10.3 347.3 10.3s214.6-.3 357.6-10.7c20-2.4 63.5-2.6 102.3-43.3 30.6-31 40.6-101.4 40.6-101.4s10.2-82.7 10.2-165.3v-77.5c0-82.7-10.2-165.3-10.2-165.3zM407 493V206l276 144-276 143z"/></g></svg><view id="color--google-drive" viewBox="120 60 30 30"/><svg width="30" height="30" viewBox="0 -2.5 33 33.01" x="120" y="60"><title>Slice 1</title><g fill="none" fill-rule="evenodd"><path d="M32.868 19h-22l-5 9h21.688" fill="#537ABD"/><path d="M11.962 0l-11 18 5 10 10.72-19.655" fill="#2EB672"/><path d="M21.962 0h-10l10.75 19h10.25l-11-19" fill="#FED14B"/></g></svg><view id="white--flat-deviantart" viewBox="120 90 30 30"/><svg width="30" height="30" viewBox="-6 0 32 32" x="120" y="90"><title>path33</title><path d="M.002 32H5.82l.58-.586 2.745-5.232.863-.582h9.8v-7.99H14.42l-.48-.58 5.867-11.21V0H13.99l-.582.586-2.746 5.232L9.8 6.4H0v7.99h5.387l.48.585L0 26.182V32z" fill="#FFF" fill-rule="nonzero"/></svg><view id="white--flat-dropbox" viewBox="0 120 30 30"/><svg width="30" height="30" viewBox="0 -8 189 189" y="120"><path d="M149.225 64.693l38.095-29.19L132.09.047 93.38 31.734l55.795 32.946-55.768 34.822 38.685 32.542 56.673-36.326-39.538-31.025zM.015 95.6l37.7-29.85 55.652 33.756-38.328 31.46L.013 95.6zM0 35.365L54.728 0l38.64 31.735L37.703 65.74 0 35.365zm38.244 91.92v12.02l55.267 32.508 55.566-32.693v-11.834l-16.47 10.565-38.968-31.71-38.845 31.698-16.55-10.552z" fill="#fff" fill-rule="evenodd"/></svg><view id="white--flat-facebook" viewBox="30 120 30 30"/><svg preserveAspectRatio="xMidYMid" width="30" height="30" viewBox="-11 0 40 40" x="30" y="120"><defs><style>.avcls-1{fill:#fff;fill-rule:evenodd}</style></defs><path d="M.006 20.003h3.996L4 40h8l-.046-19.997h5.342L18 13h-6l-.005-3.332c0-.528.023-.934.07-1.22.047-.284.154-.562.32-.832.168-.27.433-.46.794-.563C13.54 6.95 14.397 7 15 7h3l-.04-7h-5.323C9.557 0 7.35.757 6.01 2.27 4.673 3.786 4.003 6.016 4.003 8.96L4 13H0l.006 7.003z" class="avcls-1"/></svg><view id="white--flat-flickr" viewBox="60 120 30 30"/><svg width="30" height="30" viewBox="0 -7 26 26" x="60" y="120"><g fill="#fff" fill-rule="evenodd"><path d="M12 6A6 6 0 1 1 0 6a6 6 0 0 1 12 0M26 6a6 6 0 1 1-12 0 6 6 0 0 1 12 0"/></g></svg><view id="white--flat-google-drive" viewBox="90 120 30 30"/><svg width="30" height="30" viewBox="0 -2 32 32" x="90" y="120"><title>Slice 1</title><g fill="#fff" fill-rule="evenodd"><path d="M12 0h9.5L32 18h-9.5L12 0M5 27l-5-8L10.5 1 15 9 5 27M27.5 28l4.5-8H11l-4.5 8h21"/></g></svg><view id="white--flat-google-photos" viewBox="120 120 30 30"/><svg width="30" height="30" viewBox="0 0 32 32" x="120" y="120"><title>Slice 1</title><g fill="#FFF" fill-rule="evenodd"><path d="M15.523 12.36V7.615H7.615l-7.18 7.367a.317.317 0 0 0 .222.54H12.36l2.214-.948.95-2.214M15.523 19.352l-.95-2.214-2.213-.948H7.615v7.907l7.367 7.18c.056.06.136.095.224.095a.318.318 0 0 0 .317-.317V19.352M17.138 14.574l2.214.95h4.745v-7.91L16.73.435a.316.316 0 0 0-.54.222v11.705l.948 2.214M24.097 24.097l7.18-7.367a.304.304 0 0 0 .095-.224.317.317 0 0 0-.317-.316H19.352l-2.214.948-.948 2.214v4.745h7.907"/></g></svg><view id="white--flat-instagram" viewBox="150 0 30 30"/><svg width="30" height="30" viewBox="0 0 16 16" x="150"><defs><style>.azcls-1{fill:#fff;fill-rule:evenodd}</style></defs><path id="azInsta_new" data-name="Insta new" class="azcls-1" d="M8 1.44c2.136 0 2.39.01 3.233.048a4.427 4.427 0 0 1 1.486.275 2.478 2.478 0 0 1 .92.6 2.48 2.48 0 0 1 .6.92 4.43 4.43 0 0 1 .274 1.485c.038.844.047 1.1.047 3.233s-.007 2.39-.046 3.234a4.43 4.43 0 0 1-.275 1.486 2.65 2.65 0 0 1-1.52 1.518 4.43 4.43 0 0 1-1.484.275c-.843.038-1.1.047-3.233.047s-2.39-.008-3.233-.047a4.43 4.43 0 0 1-1.485-.275 2.48 2.48 0 0 1-.92-.6 2.478 2.478 0 0 1-.6-.92 4.427 4.427 0 0 1-.275-1.485c-.04-.844-.05-1.097-.05-3.233s.01-2.39.048-3.233a4.427 4.427 0 0 1 .275-1.485 2.48 2.48 0 0 1 .6-.92 2.48 2.48 0 0 1 .92-.6 4.427 4.427 0 0 1 1.485-.275C5.61 1.45 5.864 1.44 8 1.44M8 0C5.827 0 5.555.01 4.7.048A5.872 5.872 0 0 0 2.76.42a3.92 3.92 0 0 0-1.417.923A3.92 3.92 0 0 0 .42 2.76 5.872 5.872 0 0 0 .048 4.7C.008 5.555 0 5.827 0 8s.01 2.445.048 3.3a5.872 5.872 0 0 0 .372 1.94 3.922 3.922 0 0 0 .923 1.417 3.92 3.92 0 0 0 1.417.923 5.872 5.872 0 0 0 1.942.372C5.555 15.992 5.827 16 8 16s2.445-.01 3.3-.048a5.872 5.872 0 0 0 1.942-.372 4.09 4.09 0 0 0 2.34-2.34 5.872 5.872 0 0 0 .372-1.942C15.99 10.445 16 10.173 16 8s-.01-2.445-.048-3.3a5.872 5.872 0 0 0-.372-1.94 3.92 3.92 0 0 0-.923-1.417A3.922 3.922 0 0 0 13.24.42 5.872 5.872 0 0 0 11.3.048C10.445.008 10.173 0 8 0zm0 3.892A4.108 4.108 0 1 0 12.108 8 4.108 4.108 0 0 0 8 3.892zm0 6.775A2.667 2.667 0 1 1 10.667 8 2.667 2.667 0 0 1 8 10.667zm5.23-6.937a.96.96 0 1 1-.96-.96.96.96 0 0 1 .96.96z"/></svg><view id="white--flat-picasa" viewBox="150 30 30 30"/><svg height="30" version="1" viewBox="0 0 32 32" width="30" x="150" y="30"><g fill="#fff"><path d="M22.592 1.413A15.85 15.85 0 0 0 15.996-.02c-1.907 0-3.782.365-5.587 1.042L22.59 12.08V1.412zM7.762 29.732V15.977l-6.61 6.007c1.283 3.216 3.622 5.943 6.61 7.748zM0 16.07c0 1.374.208 2.77.58 4.155L14.76 7.34c-.27-.243-5.87-5.327-6.053-5.493C3.337 4.604 0 10.037 0 16.07zM9.443 23.02v7.634A15.94 15.94 0 0 0 14.52 32h2.935c5.526-.515 10.46-3.92 12.91-8.98H9.444zM24.278 2.424v18.913h6.808c.596-1.704.908-3.476.908-5.267 0-5.56-2.956-10.75-7.716-13.646z"/></g></svg><view id="white--flat-vimeo" viewBox="150 60 30 30"/><svg id="bbLayer_1" viewBox="0 0 32 32" width="30" height="30" x="150" y="60"><style>.bbst0{fill:#fff}</style><path class="bbst0" d="M32 8.6c-.1 3.1-2.3 7.4-6.5 12.8-4.3 5.6-8 8.5-11 8.5-1.9 0-3.4-1.7-4.7-5.2-.9-3.2-1.7-6.3-2.6-9.5-1-3.4-2-5.2-3.1-5.2-.2 0-1.1.5-2.5 1.5L0 9.6c1.6-1.4 3.1-2.8 4.7-4.2 2.1-1.8 3.7-2.8 4.7-2.9 2.5-.2 4 1.5 4.6 5.1.6 3.9 1.1 6.4 1.3 7.3.7 3.3 1.5 4.9 2.4 4.9.7 0 1.7-1.1 3-3.2s2.1-3.7 2.2-4.8c.2-1.8-.5-2.7-2.2-2.7-.8 0-1.6.2-2.4.5 1.6-5.1 4.6-7.6 9-7.5 3.3.2 4.9 2.3 4.7 6.5z"/></svg><view id="white--flat-youtube" viewBox="150 90 30 30"/><svg id="bcLayer_1" viewBox="0 0 32 32" width="30" height="30" x="150" y="90"><style>.bcst0{fill:#fff}</style><path class="bcst0" d="M31.7 9.6s-.3-2.2-1.3-3.2c-1.2-1.3-2.6-1.3-3.2-1.4-4.5-.2-11.2-.2-11.2-.2s-6.7 0-11.2.3c-.6.1-2 .1-3.2 1.4C.6 7.5.3 9.7.3 9.7S0 12.2 0 14.8v2.4c0 2.6.3 5.2.3 5.2s.3 2.2 1.3 3.2c1.2 1.3 2.8 1.2 3.5 1.4 2.6.2 10.9.2 10.9.2s6.7 0 11.2-.3c.6-.1 2-.1 3.2-1.4 1-1 1.3-3.2 1.3-3.2s.3-2.6.3-5.2v-2.4c0-2.5-.3-5.1-.3-5.1zm-19 10.5v-9l8.6 4.5-8.6 4.5z" id="bcLozenge"/></svg></svg>