<svg xmlns="http://www.w3.org/2000/svg" xmlns:xlink="http://www.w3.org/1999/xlink" viewBox="0 0 50 50" version="1.1">
<g id="surface1">
<path style=" " d="M 4 12 C 1.800781 12 0 13.800781 0 16 L 0 34 C 0 36.199219 1.800781 38 4 38 L 46 38 C 48.199219 38 50 36.199219 50 34 L 50 16 C 50 13.800781 48.199219 12 46 12 Z M 4 14 L 46 14 C 47.117188 14 48 14.882813 48 16 L 48 34 C 48 35.117188 47.117188 36 46 36 L 4 36 C 2.882813 36 2 35.117188 2 34 L 2 16 C 2 14.882813 2.882813 14 4 14 Z M 33.527344 22.308594 C 31.835938 22.308594 30.746094 23.445313 30.746094 25.277344 C 30.746094 27.113281 31.824219 28.25 33.527344 28.25 C 35.21875 28.25 36.296875 27.113281 36.296875 25.277344 C 36.296875 23.445313 35.21875 22.308594 33.527344 22.308594 Z M 6.914063 22.464844 L 6.914063 28.097656 L 9.617188 28.097656 C 10.824219 28.097656 11.589844 27.460938 11.589844 26.472656 C 11.589844 25.753906 11.015625 25.179688 10.28125 25.140625 L 10.28125 25.066406 C 10.878906 24.984375 11.328125 24.472656 11.328125 23.867188 C 11.328125 22.992188 10.667969 22.464844 9.542969 22.464844 Z M 13.015625 22.464844 L 13.015625 26.152344 C 13.015625 27.417969 13.980469 28.25 15.445313 28.25 C 16.910156 28.25 17.871094 27.417969 17.871094 26.152344 L 17.871094 22.464844 L 16.4375 22.464844 L 16.4375 26 C 16.4375 26.65625 16.082031 27.046875 15.445313 27.046875 C 14.808594 27.046875 14.449219 26.65625 14.449219 26 L 14.449219 22.464844 Z M 19.296875 22.464844 L 19.296875 23.613281 L 20.921875 23.613281 L 20.921875 28.097656 L 22.347656 28.097656 L 22.347656 23.613281 L 23.980469 23.613281 L 23.980469 22.464844 Z M 25.089844 22.464844 L 25.089844 23.613281 L 26.714844 23.613281 L 26.714844 28.097656 L 28.144531 28.097656 L 28.144531 23.613281 L 29.773438 23.613281 L 29.773438 22.464844 Z M 37.761719 22.464844 L 37.761719 28.097656 L 39.121094 28.097656 L 39.121094 24.894531 L 39.195313 24.894531 L 41.550781 28.097656 L 42.6875 28.097656 L 42.6875 22.464844 L 41.328125 22.464844 L 41.328125 25.636719 L 41.253906 25.636719 L 38.90625 22.464844 Z M 8.347656 23.472656 L 9.160156 23.472656 C 9.648438 23.472656 9.933594 23.714844 9.933594 24.117188 C 9.933594 24.515625 9.628906 24.761719 9.105469 24.761719 L 8.347656 24.761719 Z M 33.523438 23.496094 C 34.3125 23.496094 34.839844 24.191406 34.839844 25.277344 C 34.839844 26.367188 34.316406 27.0625 33.523438 27.0625 C 32.722656 27.0625 32.203125 26.367188 32.203125 25.277344 C 32.203125 24.191406 32.730469 23.496094 33.523438 23.496094 Z M 8.347656 25.628906 L 9.203125 25.628906 C 9.800781 25.628906 10.132813 25.886719 10.132813 26.347656 C 10.132813 26.824219 9.808594 27.089844 9.214844 27.089844 L 8.347656 27.089844 Z "></path>
</g>
</svg>