<svg xmlns="http://www.w3.org/2000/svg" xmlns:xlink="http://www.w3.org/1999/xlink" viewBox="0 0 32 32" version="1.1">
	<g id="surface1">
		<path style=" " d="M 14 2 L 14 7 L 16 9 L 16 4 L 23 4 L 23 9 L 28 9 L 28 22 L 20 22 L 20 24 L 30 24 L 30 7.578125 L 29.777344 7.3125 L 24.972656 2.238281 L 24.722656 2 Z M 25.199219 4.90625 L 27.25 7.078125 L 25.199219 7.078125 Z M 2 8 L 2 30 L 18 30 L 18 13.578125 L 17.777344 13.3125 L 13 8 Z M 4 10 L 11 10 L 11 15 L 16 15 L 16 28 L 4 28 Z M 13.199219 10.90625 L 15.25 13.078125 L 13.199219 13.078125 Z M 20 12 L 20 14 L 26 14 L 26 12 Z M 20 16 L 20 18 L 26 18 L 26 16 Z M 6 18 L 6 20 L 14 20 L 14 18 Z M 6 22 L 6 24 L 14 24 L 14 22 Z "></path>
	</g>
</svg>