<svg xmlns="http://www.w3.org/2000/svg" xmlns:xlink="http://www.w3.org/1999/xlink" viewBox="0 0 32 32" version="1.1">
<g id="surface1">
<path style=" " d="M 4 5 L 4 13 L 28 13 L 28 5 Z M 6 7 L 26 7 L 26 11 L 6 11 Z M 8 8 C 7.449219 8 7 8.449219 7 9 C 7 9.550781 7.449219 10 8 10 C 8.550781 10 9 9.550781 9 9 C 9 8.449219 8.550781 8 8 8 Z M 11 8 C 10.449219 8 10 8.449219 10 9 C 10 9.550781 10.449219 10 11 10 C 11.550781 10 12 9.550781 12 9 C 12 8.449219 11.550781 8 11 8 Z M 14 8 C 13.449219 8 13 8.449219 13 9 C 13 9.550781 13.449219 10 14 10 C 14.550781 10 15 9.550781 15 9 C 15 8.449219 14.550781 8 14 8 Z M 4 14 L 4 27 L 28 27 L 28 14 L 26 14 L 26 25 L 6 25 L 6 14 Z M 8 15 L 8 23 L 16 23 L 16 15 Z M 18 15 L 18 17 L 24 17 L 24 15 Z M 10 17 L 14 17 L 14 21 L 10 21 Z M 18 18 L 18 20 L 24 20 L 24 18 Z M 18 21 L 18 23 L 24 23 L 24 21 Z "></path>
</g>
</svg>