<?xml version="1.0" encoding="utf-8"?>
<!-- Generator: Adobe Illustrator 16.0.0, SVG Export Plug-In . SVG Version: 6.00 Build 0)  -->
<!DOCTYPE svg PUBLIC "-//W3C//DTD SVG 1.1//EN" "http://www.w3.org/Graphics/SVG/1.1/DTD/svg11.dtd">
<svg version="1.1" id="Layer_1" xmlns="http://www.w3.org/2000/svg" xmlns:xlink="http://www.w3.org/1999/xlink" x="0px" y="0px"
	 width="15px" height="25px" viewBox="0 0 15 25" enable-background="new 0 0 15 25" xml:space="preserve">
<path d="M15,23.1V1.9C15,0.9,14.1,0,13.1,0H1.9C0.9,0,0,0.9,0,1.9v21.1C0,24.1,0.9,25,1.9,25h11.1C14.1,25,15,24.1,15,23.1z
	 M1.2,4.5h12.5v14.2H1.2V4.5z M1.9,1.3h11.1c0.4,0,0.7,0.3,0.7,0.7v1.3H1.2V1.9C1.2,1.6,1.6,1.3,1.9,1.3z M1.2,23.1V20h12.5v3.1
	c0,0.4-0.3,0.7-0.7,0.7H1.9C1.6,23.7,1.2,23.4,1.2,23.1z"/>
</svg>
