<?xml version="1.0" encoding="utf-8"?>
<!-- Generator: Adobe Illustrator 16.0.0, SVG Export Plug-In . SVG Version: 6.00 Build 0)  -->
<!DOCTYPE svg PUBLIC "-//W3C//DTD SVG 1.1//EN" "http://www.w3.org/Graphics/SVG/1.1/DTD/svg11.dtd">
<svg version="1.1" id="Layer_1" xmlns="http://www.w3.org/2000/svg" xmlns:xlink="http://www.w3.org/1999/xlink" x="0px" y="0px"
	 width="23px" height="23px" viewBox="0 0 23 23" enable-background="new 0 0 23 23" xml:space="preserve">
<g>
	<path d="M12.8,10.3H6.1c-0.5,0-0.9-0.4-0.9-0.9c0-0.5,0.4-0.9,0.9-0.9h6.7c0.5,0,0.9,0.4,0.9,0.9C13.7,9.9,13.3,10.3,12.8,10.3
		L12.8,10.3z M22.8,22.7c-0.2,0.2-0.4,0.3-0.6,0.3s-0.5-0.1-0.6-0.3l-6.1-6c-1.6,1.3-3.7,2.1-6,2.1c-1.6,0-3.2-0.4-4.6-1.2
		c-0.4-0.2-0.6-0.8-0.3-1.2c0.2-0.4,0.8-0.6,1.2-0.3c1.1,0.6,2.4,1,3.7,1c4.2,0,7.6-3.4,7.6-7.6c0-4.2-3.4-7.6-7.6-7.6
		c-4.2,0-7.6,3.4-7.6,7.6c0,1.3,0.3,2.6,1,3.8c0.2,0.4,0.1,1-0.3,1.2c-0.4,0.2-1,0.1-1.2-0.3C0.4,12.7,0,11.1,0,9.4
		C0,4.2,4.2,0,9.4,0c5.2,0,9.4,4.2,9.4,9.4c0,2.3-0.8,4.4-2.2,6l6.1,6C23.1,21.8,23.1,22.4,22.8,22.7L22.8,22.7z"/>
</g>
</svg>
