<?xml version="1.0" encoding="utf-8"?>
<!-- Generator: Adobe Illustrator 16.0.0, SVG Export Plug-In . SVG Version: 6.00 Build 0)  -->
<!DOCTYPE svg PUBLIC "-//W3C//DTD SVG 1.1//EN" "http://www.w3.org/Graphics/SVG/1.1/DTD/svg11.dtd">
<svg version="1.1" id="Layer_1" xmlns="http://www.w3.org/2000/svg" xmlns:xlink="http://www.w3.org/1999/xlink" x="0px" y="0px"
	 width="23px" height="23px" viewBox="0 0 23 23" enable-background="new 0 0 23 23" xml:space="preserve">
<g>
	<path d="M12.793,10.3h-6.7c-0.5,0-0.9-0.4-0.9-0.9s0.4-0.9,0.9-0.9h6.7c0.5,0,0.9,0.4,0.9,0.9S13.293,10.3,12.793,10.3L12.793,10.3
		z M22.793,22.7c-0.2,0.2-0.399,0.3-0.6,0.3s-0.5-0.1-0.601-0.3l-6.1-6c-1.6,1.3-3.7,2.1-6,2.1c-1.6,0-3.2-0.399-4.6-1.2
		c-0.4-0.199-0.6-0.8-0.3-1.199c0.2-0.4,0.8-0.601,1.2-0.301c1.1,0.601,2.4,1,3.7,1c4.2,0,7.6-3.399,7.6-7.6s-3.399-7.6-7.6-7.6
		s-7.6,3.4-7.6,7.6c0,1.3,0.3,2.6,1,3.8c0.2,0.4,0.1,1-0.3,1.2s-1,0.1-1.2-0.3c-1-1.5-1.4-3.1-1.4-4.8c0-5.2,4.2-9.4,9.4-9.4
		s9.4,4.2,9.4,9.4c0,2.3-0.8,4.4-2.2,6l6.101,6C23.093,21.8,23.093,22.4,22.793,22.7L22.793,22.7z M10.392,6.254v6.7
		c0,0.5-0.399,0.9-0.899,0.9s-0.9-0.4-0.9-0.9v-6.7c0-0.5,0.4-0.9,0.9-0.9S10.392,5.754,10.392,6.254L10.392,6.254z"/>
</g>
</svg>
