<?xml version="1.0" encoding="UTF-8"?><!DOCTYPE svg PUBLIC "-//W3C//DTD SVG 1.1//EN" "http://www.w3.org/Graphics/SVG/1.1/DTD/svg11.dtd"><svg xmlns="http://www.w3.org/2000/svg"><symbol id="warning" viewBox="0 0 24 24"><path d="M1 21h22L12 2 1 21zm12-3h-2v-2h2v2zm0-4h-2v-4h2v4z"/></symbol><symbol id="live-help" viewBox="0 0 24 24"><path d="M19 2H5a2 2 0 0 0-2 2v14a2 2 0 0 0 2 2h4l3 3 3-3h4c1.1 0 2-.9 2-2V4c0-1.1-.9-2-2-2zm-6 16h-2v-2h2v2zm2.07-7.75l-.9.92C13.45 11.9 13 12.5 13 14h-2v-.5c0-1.1.45-2.1 1.17-2.83l1.24-1.26c.37-.36.59-.86.59-1.41 0-1.1-.9-2-2-2s-2 .9-2 2H8c0-2.21 1.79-4 4-4s4 1.79 4 4c0 .88-.36 1.68-.93 2.25z"/></symbol><symbol id="call-to-action" viewBox="0 0 24 24"><path d="M21 3H3c-1.1 0-2 .9-2 2v14c0 1.1.9 2 2 2h18c1.1 0 2-.9 2-2V5c0-1.1-.9-2-2-2zm0 16H3v-3h18v3z"/></symbol><symbol id="note" viewBox="0 0 24 24"><path d="M22 10l-6-6H4c-1.1 0-2 .9-2 2v12.01c0 1.1.9 1.99 2 1.99l16-.01c1.1 0 2-.89 2-1.99v-8zm-7-4.5l5.5 5.5H15V5.5z"/></symbol><symbol id="pause" viewBox="0 0 24 24"><path d="M6 19h4V5H6v14zm8-14v14h4V5h-4z"/></symbol><symbol id="subscriptions" viewBox="0 0 24 24"><path d="M20 8H4V6h16v2zm-2-6H6v2h12V2zm4 10v8c0 1.1-.9 2-2 2H4c-1.1 0-2-.9-2-2v-8c0-1.1.9-2 2-2h16c1.1 0 2 .9 2 2zm-6 4l-6-3.27v6.53L16 16z"/></symbol><symbol id="video-library" viewBox="0 0 24 24"><path d="M4 6H2v14c0 1.1.9 2 2 2h14v-2H4V6zm16-4H8c-1.1 0-2 .9-2 2v12c0 1.1.9 2 2 2h12c1.1 0 2-.9 2-2V4c0-1.1-.9-2-2-2zm-8 12.5v-9l6 4.5-6 4.5z"/></symbol><symbol id="videocam" viewBox="0 0 24 24"><path d="M17 10.5V7c0-.55-.45-1-1-1H4c-.55 0-1 .45-1 1v10c0 .55.45 1 1 1h12c.55 0 1-.45 1-1v-3.5l4 4v-11l-4 4z"/></symbol><symbol id="add" viewBox="0 0 24 24"><path d="M19 13h-6v6h-2v-6H5v-2h6V5h2v6h6v2z"/></symbol><symbol id="content-copy" viewBox="0 0 24 24"><path d="M16 1H4c-1.1 0-2 .9-2 2v14h2V3h12V1zm3 4H8c-1.1 0-2 .9-2 2v14c0 1.1.9 2 2 2h11c1.1 0 2-.9 2-2V7c0-1.1-.9-2-2-2zm0 16H8V7h11v14z"/></symbol><symbol id="content-cut" viewBox="0 0 24 24"><path d="M9.64 7.64c.23-.5.36-1.05.36-1.64 0-2.21-1.79-4-4-4S2 3.79 2 6s1.79 4 4 4c.59 0 1.14-.13 1.64-.36L10 12l-2.36 2.36C7.14 14.13 6.59 14 6 14c-2.21 0-4 1.79-4 4s1.79 4 4 4 4-1.79 4-4c0-.59-.13-1.14-.36-1.64L12 14l7 7h3v-1L9.64 7.64zM6 8c-1.1 0-2-.89-2-2s.9-2 2-2 2 .89 2 2-.9 2-2 2zm0 12c-1.1 0-2-.89-2-2s.9-2 2-2 2 .89 2 2-.9 2-2 2zm6-7.5c-.28 0-.5-.22-.5-.5s.22-.5.5-.5.5.22.5.5-.22.5-.5.5zM19 3l-6 6 2 2 7-7V3z"/></symbol><symbol id="content-paste" viewBox="0 0 24 24"><path d="M19 2h-4.18C14.4.84 13.3 0 12 0c-1.3 0-2.4.84-2.82 2H5c-1.1 0-2 .9-2 2v16c0 1.1.9 2 2 2h14c1.1 0 2-.9 2-2V4c0-1.1-.9-2-2-2zm-7 0c.55 0 1 .45 1 1s-.45 1-1 1-1-.45-1-1 .45-1 1-1zm7 18H5V4h2v3h10V4h2v16z"/></symbol><symbol id="link" viewBox="0 0 24 24"><path d="M3.9 12c0-1.71 1.39-3.1 3.1-3.1h4V7H7c-2.76 0-5 2.24-5 5s2.24 5 5 5h4v-1.9H7c-1.71 0-3.1-1.39-3.1-3.1zM8 13h8v-2H8v2zm9-6h-4v1.9h4c1.71 0 3.1 1.39 3.1 3.1s-1.39 3.1-3.1 3.1h-4V17h4c2.76 0 5-2.24 5-5s-2.24-5-5-5z"/></symbol><symbol id="mail" viewBox="0 0 24 24"><path d="M20 4H4c-1.1 0-1.99.9-1.99 2L2 18c0 1.1.9 2 2 2h16c1.1 0 2-.9 2-2V6c0-1.1-.9-2-2-2zm0 4l-8 5-8-5V6l8 5 8-5v2z"/></symbol><symbol id="redo" viewBox="0 0 24 24"><path d="M18.4 10.6C16.55 8.99 14.15 8 11.5 8c-4.65 0-8.58 3.03-9.96 7.22L3.9 16a8.002 8.002 0 0 1 7.6-5.5c1.95 0 3.73.72 5.12 1.88L13 16h9V7l-3.6 3.6z"/></symbol><symbol id="remove" viewBox="0 0 24 24"><path d="M19 13H5v-2h14v2z"/></symbol><symbol id="reply" viewBox="0 0 24 24"><path d="M10 9V5l-7 7 7 7v-4.1c5 0 8.5 1.6 11 5.1-1-5-4-10-11-11z"/></symbol><symbol id="save" viewBox="0 0 24 24"><path d="M17 3H5a2 2 0 0 0-2 2v14a2 2 0 0 0 2 2h14c1.1 0 2-.9 2-2V7l-4-4zm-5 16c-1.66 0-3-1.34-3-3s1.34-3 3-3 3 1.34 3 3-1.34 3-3 3zm3-10H5V5h10v4z"/></symbol><symbol id="undo" viewBox="0 0 24 24"><path d="M12.5 8c-2.65 0-5.05.99-6.9 2.6L2 7v9h9l-3.62-3.62c1.39-1.16 3.16-1.88 5.12-1.88 3.54 0 6.55 2.31 7.6 5.5l2.37-.78C21.08 11.03 17.15 8 12.5 8z"/></symbol><symbol id="attachment" viewBox="0 0 24 24"><path d="M2 12.5C2 9.46 4.46 7 7.5 7H18c2.21 0 4 1.79 4 4s-1.79 4-4 4H9.5a2.5 2.5 0 0 1 0-5H17v2H9.41c-.55 0-.55 1 0 1H18c1.1 0 2-.9 2-2s-.9-2-2-2H7.5C5.57 9 4 10.57 4 12.5S5.57 16 7.5 16H17v2H7.5C4.46 18 2 15.54 2 12.5z"/></symbol><symbol id="file-download" viewBox="0 0 24 24"><path d="M19 9h-4V3H9v6H5l7 7 7-7zM5 18v2h14v-2H5z"/></symbol><symbol id="border-all" viewBox="0 0 24 24"><path d="M3 3v18h18V3H3zm8 16H5v-6h6v6zm0-8H5V5h6v6zm8 8h-6v-6h6v6zm0-8h-6V5h6v6z"/></symbol><symbol id="drag-handle" viewBox="0 0 24 24"><path d="M20 9H4v2h16V9zM4 15h16v-2H4v2z"/></symbol><symbol id="format-align-center" viewBox="0 0 24 24"><path d="M7 15v2h10v-2H7zm-4 6h18v-2H3v2zm0-8h18v-2H3v2zm4-6v2h10V7H7zM3 3v2h18V3H3z"/></symbol><symbol id="format-align-left" viewBox="0 0 24 24"><path d="M15 15H3v2h12v-2zm0-8H3v2h12V7zM3 13h18v-2H3v2zm0 8h18v-2H3v2zM3 3v2h18V3H3z"/></symbol><symbol id="format-align-right" viewBox="0 0 24 24"><path d="M3 21h18v-2H3v2zm6-4h12v-2H9v2zm-6-4h18v-2H3v2zm6-4h12V7H9v2zM3 3v2h18V3H3z"/></symbol><symbol id="format-bold" viewBox="0 0 24 24"><path d="M15.6 10.79c.97-.67 1.65-1.77 1.65-2.79 0-2.26-1.75-4-4-4H7v14h7.04c2.09 0 3.71-1.7 3.71-3.79 0-1.52-.86-2.82-2.15-3.42zM10 6.5h3c.83 0 1.5.67 1.5 1.5s-.67 1.5-1.5 1.5h-3v-3zm3.5 9H10v-3h3.5c.83 0 1.5.67 1.5 1.5s-.67 1.5-1.5 1.5z"/></symbol><symbol id="format-clear" viewBox="0 0 24 24"><path d="M3.27 5L2 6.27l6.97 6.97L6.5 19h3l1.57-3.66L16.73 21 18 19.73 3.55 5.27 3.27 5zM6 5v.18L8.82 8h2.4l-.72 1.68 2.1 2.1L14.21 8H20V5H6z"/></symbol><symbol id="format-color-fill" viewBox="0 0 24 24"><path d="M16.56 8.94L7.62 0 6.21 1.41l2.38 2.38-5.15 5.15a1.49 1.49 0 0 0 0 2.12l5.5 5.5c.29.29.68.44 1.06.44s.77-.15 1.06-.44l5.5-5.5c.59-.58.59-1.53 0-2.12zM5.21 10L10 5.21 14.79 10H5.21zM19 11.5s-2 2.17-2 3.5c0 1.1.9 2 2 2s2-.9 2-2c0-1.33-2-3.5-2-3.5z"/><path fill-opacity=".36" d="M0 20h24v4H0z"/></symbol><symbol id="format-color-text" viewBox="0 0 24 24"><path fill-opacity=".36" d="M0 20h24v4H0z"/><path d="M11 3L5.5 17h2.25l1.12-3h6.25l1.12 3h2.25L13 3h-2zm-1.38 9L12 5.67 14.38 12H9.62z"/></symbol><symbol id="format-italic" viewBox="0 0 24 24"><path d="M10 4v3h2.21l-3.42 8H6v3h8v-3h-2.21l3.42-8H18V4z"/></symbol><symbol id="format-list-bulleted" viewBox="0 0 24 24"><path d="M4 10.5c-.83 0-1.5.67-1.5 1.5s.67 1.5 1.5 1.5 1.5-.67 1.5-1.5-.67-1.5-1.5-1.5zm0-6c-.83 0-1.5.67-1.5 1.5S3.17 7.5 4 7.5 5.5 6.83 5.5 6 4.83 4.5 4 4.5zm0 12c-.83 0-1.5.68-1.5 1.5s.68 1.5 1.5 1.5 1.5-.68 1.5-1.5-.67-1.5-1.5-1.5zM7 19h14v-2H7v2zm0-6h14v-2H7v2zm0-8v2h14V5H7z"/></symbol><symbol id="format-list-numbered" viewBox="0 0 24 24"><path d="M2 17h2v.5H3v1h1v.5H2v1h3v-4H2v1zm1-9h1V4H2v1h1v3zm-1 3h1.8L2 13.1v.9h3v-1H3.2L5 10.9V10H2v1zm5-6v2h14V5H7zm0 14h14v-2H7v2zm0-6h14v-2H7v2z"/></symbol><symbol id="format-quote" viewBox="0 0 24 24"><path d="M6 17h3l2-4V7H5v6h3zm8 0h3l2-4V7h-6v6h3z"/></symbol><symbol id="format-size" viewBox="0 0 24 24"><path d="M9 4v3h5v12h3V7h5V4H9zm-6 8h3v7h3v-7h3V9H3v3z"/></symbol><symbol id="format-strikethrough" viewBox="0 0 24 24"><path d="M10 19h4v-3h-4v3zM5 4v3h5v3h4V7h5V4H5zM3 14h18v-2H3v2z"/></symbol><symbol id="format-underlined" viewBox="0 0 24 24"><path d="M12 17c3.31 0 6-2.69 6-6V3h-2.5v8c0 1.93-1.57 3.5-3.5 3.5S8.5 12.93 8.5 11V3H6v8c0 3.31 2.69 6 6 6zm-7 2v2h14v-2H5z"/></symbol><symbol id="insert-drive-file" viewBox="0 0 24 24"><path d="M6 2c-1.1 0-1.99.9-1.99 2L4 20c0 1.1.89 2 1.99 2H18c1.1 0 2-.9 2-2V8l-6-6H6zm7 7V3.5L18.5 9H13z"/></symbol><symbol id="insert-emoticon" viewBox="0 0 24 24"><path d="M11.99 2C6.47 2 2 6.48 2 12s4.47 10 9.99 10C17.52 22 22 17.52 22 12S17.52 2 11.99 2zM12 20c-4.42 0-8-3.58-8-8s3.58-8 8-8 8 3.58 8 8-3.58 8-8 8zm3.5-9c.83 0 1.5-.67 1.5-1.5S16.33 8 15.5 8 14 8.67 14 9.5s.67 1.5 1.5 1.5zm-7 0c.83 0 1.5-.67 1.5-1.5S9.33 8 8.5 8 7 8.67 7 9.5 7.67 11 8.5 11zm3.5 6.5c2.33 0 4.31-1.46 5.11-3.5H6.89c.8 2.04 2.78 3.5 5.11 3.5z"/></symbol><symbol id="mode-edit" viewBox="0 0 24 24"><path d="M3 17.25V21h3.75L17.81 9.94l-3.75-3.75L3 17.25zM20.71 7.04a.996.996 0 0 0 0-1.41l-2.34-2.34a.996.996 0 0 0-1.41 0l-1.83 1.83 3.75 3.75 1.83-1.83z"/></symbol><symbol id="monetization-on" viewBox="0 0 24 24"><path d="M12 2C6.48 2 2 6.48 2 12s4.48 10 10 10 10-4.48 10-10S17.52 2 12 2zm1.41 16.09V20h-2.67v-1.93c-1.71-.36-3.16-1.46-3.27-3.4h1.96c.1 1.05.82 1.87 2.65 1.87 1.96 0 2.4-.98 2.4-1.59 0-.83-.44-1.61-2.67-2.14-2.48-.6-4.18-1.62-4.18-3.67 0-1.72 1.39-2.84 3.11-3.21V4h2.67v1.95c1.86.45 2.79 1.86 2.85 3.39H14.3c-.05-1.11-.64-1.87-2.22-1.87-1.5 0-2.4.68-2.4 1.64 0 .84.65 1.39 2.67 1.91s4.18 1.39 4.18 3.91c-.01 1.83-1.38 2.83-3.12 3.16z"/></symbol><symbol id="pie-chart" viewBox="0 0 24 24"><path d="M11 2v20c-5.07-.5-9-4.79-9-10s3.93-9.5 9-10zm2.03 0v8.99H22c-.47-4.74-4.24-8.52-8.97-8.99zm0 11.01V22c4.74-.47 8.5-4.25 8.97-8.99h-8.97z"/></symbol><symbol id="publish" viewBox="0 0 24 24"><path d="M5 4v2h14V4H5zm0 10h4v6h6v-6h4l-7-7-7 7z"/></symbol><symbol id="short-text" viewBox="0 0 24 24"><path d="M4 9h16v2H4zm0 4h10v2H4z"/></symbol><symbol id="show-chart" viewBox="0 0 24 24"><path d="M3.5 18.49l6-6.01 4 4L22 6.92l-1.41-1.41-7.09 7.97-4-4L2 16.99z"/></symbol><symbol id="account-box" viewBox="0 0 24 24"><path d="M3 5v14a2 2 0 0 0 2 2h14c1.1 0 2-.9 2-2V5c0-1.1-.9-2-2-2H5a2 2 0 0 0-2 2zm12 4c0 1.66-1.34 3-3 3s-3-1.34-3-3 1.34-3 3-3 3 1.34 3 3zm-9 8c0-2 4-3.1 6-3.1s6 1.1 6 3.1v1H6v-1z"/></symbol><symbol id="assignment" viewBox="0 0 24 24"><path d="M19 3h-4.18C14.4 1.84 13.3 1 12 1c-1.3 0-2.4.84-2.82 2H5c-1.1 0-2 .9-2 2v14c0 1.1.9 2 2 2h14c1.1 0 2-.9 2-2V5c0-1.1-.9-2-2-2zm-7 0c.55 0 1 .45 1 1s-.45 1-1 1-1-.45-1-1 .45-1 1-1zm2 14H7v-2h7v2zm3-4H7v-2h10v2zm0-4H7V7h10v2z"/></symbol><symbol id="build" viewBox="0 0 24 24"><path d="M22.7 19l-9.1-9.1c.9-2.3.4-5-1.5-6.9-2-2-5-2.4-7.4-1.3L9 6 6 9 1.6 4.7C.4 7.1.9 10.1 2.9 12.1c1.9 1.9 4.6 2.4 6.9 1.5l9.1 9.1c.4.4 1 .4 1.4 0l2.3-2.3c.5-.4.5-1.1.1-1.4z"/></symbol><symbol id="code" viewBox="0 0 24 24"><path d="M9.4 16.6L4.8 12l4.6-4.6L8 6l-6 6 6 6 1.4-1.4zm5.2 0l4.6-4.6-4.6-4.6L16 6l6 6-6 6-1.4-1.4z"/></symbol><symbol id="credit-card" viewBox="0 0 24 24"><path d="M20 4H4c-1.11 0-1.99.89-1.99 2L2 18c0 1.11.89 2 2 2h16c1.11 0 2-.89 2-2V6c0-1.11-.89-2-2-2zm0 14H4v-6h16v6zm0-10H4V6h16v2z"/></symbol><symbol id="dashboard" viewBox="0 0 24 24"><path d="M3 13h8V3H3v10zm0 8h8v-6H3v6zm10 0h8V11h-8v10zm0-18v6h8V3h-8z"/></symbol><symbol id="delete" viewBox="0 0 24 24"><path d="M6 19c0 1.1.9 2 2 2h8c1.1 0 2-.9 2-2V7H6v12zM19 4h-3.5l-1-1h-5l-1 1H5v2h14V4z"/></symbol><symbol id="exit-to-app" viewBox="0 0 24 24"><path d="M10.09 15.59L11.5 17l5-5-5-5-1.41 1.41L12.67 11H3v2h9.67l-2.58 2.59zM19 3H5a2 2 0 0 0-2 2v4h2V5h14v14H5v-4H3v4a2 2 0 0 0 2 2h14c1.1 0 2-.9 2-2V5c0-1.1-.9-2-2-2z"/></symbol><symbol id="flip-to-back" viewBox="0 0 24 24"><path d="M9 7H7v2h2V7zm0 4H7v2h2v-2zm0-8a2 2 0 0 0-2 2h2V3zm4 12h-2v2h2v-2zm6-12v2h2c0-1.1-.9-2-2-2zm-6 0h-2v2h2V3zM9 17v-2H7a2 2 0 0 0 2 2zm10-4h2v-2h-2v2zm0-4h2V7h-2v2zm0 8c1.1 0 2-.9 2-2h-2v2zM5 7H3v12a2 2 0 0 0 2 2h12v-2H5V7zm10-2h2V3h-2v2zm0 12h2v-2h-2v2z"/></symbol><symbol id="info" viewBox="0 0 24 24"><path d="M12 2C6.48 2 2 6.48 2 12s4.48 10 10 10 10-4.48 10-10S17.52 2 12 2zm1 15h-2v-6h2v6zm0-8h-2V7h2v2z"/></symbol><symbol id="label-outline" viewBox="0 0 24 24"><path d="M17.63 5.84C17.27 5.33 16.67 5 16 5L5 5.01C3.9 5.01 3 5.9 3 7v10c0 1.1.9 1.99 2 1.99L16 19c.67 0 1.27-.33 1.63-.84L22 12l-4.37-6.16zM16 17H5V7h11l3.55 5L16 17z"/></symbol><symbol id="open-in-new" viewBox="0 0 24 24"><path d="M19 19H5V5h7V3H5a2 2 0 0 0-2 2v14a2 2 0 0 0 2 2h14c1.1 0 2-.9 2-2v-7h-2v7zM14 3v2h3.59l-9.83 9.83 1.41 1.41L19 6.41V10h2V3h-7z"/></symbol><symbol id="perm-media" viewBox="0 0 24 24"><path d="M2 6H0v5h.01L0 20c0 1.1.9 2 2 2h18v-2H2V6zm20-2h-8l-2-2H6c-1.1 0-1.99.9-1.99 2L4 16c0 1.1.9 2 2 2h16c1.1 0 2-.9 2-2V6c0-1.1-.9-2-2-2zM7 15l4.5-6 3.5 4.51 2.5-3.01L21 15H7z"/></symbol><symbol id="print" viewBox="0 0 24 24"><path d="M19 8H5c-1.66 0-3 1.34-3 3v6h4v4h12v-4h4v-6c0-1.66-1.34-3-3-3zm-3 11H8v-5h8v5zm3-7c-.55 0-1-.45-1-1s.45-1 1-1 1 .45 1 1-.45 1-1 1zm-1-9H6v4h12V3z"/></symbol><symbol id="search" viewBox="0 0 24 24"><path d="M15.5 14h-.79l-.28-.27A6.471 6.471 0 0 0 16 9.5 6.5 6.5 0 1 0 9.5 16c1.61 0 3.09-.59 4.23-1.57l.27.28v.79l5 4.99L20.49 19l-4.99-5zm-6 0C7.01 14 5 11.99 5 9.5S7.01 5 9.5 5 14 7.01 14 9.5 11.99 14 9.5 14z"/></symbol><symbol id="settings" viewBox="0 0 24 24"><path d="M19.43 12.98c.04-.32.07-.64.07-.98s-.03-.66-.07-.98l2.11-1.65c.19-.15.24-.42.12-.64l-2-3.46c-.12-.22-.39-.3-.61-.22l-2.49 1c-.52-.4-1.08-.73-1.69-.98l-.38-2.65A.488.488 0 0 0 14 2h-4c-.25 0-.46.18-.49.42l-.38 2.65c-.61.25-1.17.59-1.69.98l-2.49-1c-.23-.09-.49 0-.61.22l-2 3.46c-.13.22-.07.49.12.64l2.11 1.65c-.04.32-.07.65-.07.98s.03.66.07.98l-2.11 1.65c-.19.15-.24.42-.12.64l2 3.46c.12.22.39.3.61.22l2.49-1c.52.4 1.08.73 1.69.98l.38 2.65c.03.24.24.42.49.42h4c.25 0 .46-.18.49-.42l.38-2.65c.61-.25 1.17-.59 1.69-.98l2.49 1c.23.09.49 0 .61-.22l2-3.46c.12-.22.07-.49-.12-.64l-2.11-1.65zM12 15.5c-1.93 0-3.5-1.57-3.5-3.5s1.57-3.5 3.5-3.5 3.5 1.57 3.5 3.5-1.57 3.5-3.5 3.5z"/></symbol><symbol id="translate" viewBox="0 0 24 24"><path d="M12.87 15.07l-2.54-2.51.03-.03A17.52 17.52 0 0 0 14.07 6H17V4h-7V2H8v2H1v1.99h11.17C11.5 7.92 10.44 9.75 9 11.35 8.07 10.32 7.3 9.19 6.69 8h-2c.73 1.63 1.73 3.17 2.98 4.56l-5.09 5.02L4 19l5-5 3.11 3.11.76-2.04zM18.5 10h-2L12 22h2l1.12-3h4.75L21 22h2l-4.5-12zm-2.62 7l1.62-4.33L19.12 17h-3.24z"/></symbol><symbol id="view-column" viewBox="0 0 24 24"><path d="M10 18h5V5h-5v13zm-6 0h5V5H4v13zM16 5v13h5V5h-5z"/></symbol><symbol id="view-headline" viewBox="0 0 24 24"><path d="M4 15h16v-2H4v2zm0 4h16v-2H4v2zm0-8h16V9H4v2zm0-6v2h16V5H4z"/></symbol><symbol id="view-list" viewBox="0 0 24 24"><path d="M4 14h4v-4H4v4zm0 5h4v-4H4v4zM4 9h4V5H4v4zm5 5h12v-4H9v4zm0 5h12v-4H9v4zM9 5v4h12V5H9z"/></symbol><symbol id="view-module" viewBox="0 0 24 24"><path d="M4 11h5V5H4v6zm0 7h5v-6H4v6zm6 0h5v-6h-5v6zm6 0h5v-6h-5v6zm-6-7h5V5h-5v6zm6-6v6h5V5h-5z"/></symbol><symbol id="view-stream" viewBox="0 0 24 24"><path d="M4 18h17v-6H4v6zM4 5v6h17V5H4z"/></symbol><symbol id="visibility" viewBox="0 0 24 24"><path d="M12 4.5C7 4.5 2.73 7.61 1 12c1.73 4.39 6 7.5 11 7.5s9.27-3.11 11-7.5c-1.73-4.39-6-7.5-11-7.5zM12 17c-2.76 0-5-2.24-5-5s2.24-5 5-5 5 2.24 5 5-2.24 5-5 5zm0-8c-1.66 0-3 1.34-3 3s1.34 3 3 3 3-1.34 3-3-1.34-3-3-3z"/></symbol><symbol id="desktop-windows" viewBox="0 0 24 24"><path d="M21 2H3c-1.1 0-2 .9-2 2v12c0 1.1.9 2 2 2h7v2H8v2h8v-2h-2v-2h7c1.1 0 2-.9 2-2V4c0-1.1-.9-2-2-2zm0 14H3V4h18v12z"/></symbol><symbol id="keyboard-arrow-down" viewBox="0 0 24 24"><path d="M7.41 7.84L12 12.42l4.59-4.58L18 9.25l-6 6-6-6z"/></symbol><symbol id="keyboard-arrow-left" viewBox="0 0 24 24"><path d="M15.41 16.09l-4.58-4.59 4.58-4.59L14 5.5l-6 6 6 6z"/></symbol><symbol id="keyboard-arrow-right" viewBox="0 0 24 24"><path d="M8.59 16.34l4.58-4.59-4.58-4.59L10 5.75l6 6-6 6z"/></symbol><symbol id="keyboard-arrow-up" viewBox="0 0 24 24"><path d="M7.41 15.41L12 10.83l4.59 4.58L18 14l-6-6-6 6z"/></symbol><symbol id="keyboard-backspace" viewBox="0 0 24 24"><path d="M21 11H6.83l3.58-3.59L9 6l-6 6 6 6 1.41-1.41L6.83 13H21z"/></symbol><symbol id="laptop-chromebook" viewBox="0 0 24 24"><path d="M22 18V3H2v15H0v2h24v-2h-2zm-8 0h-4v-1h4v1zm6-3H4V5h16v10z"/></symbol><symbol id="phone-android" viewBox="0 0 24 24"><path d="M16 1H8C6.34 1 5 2.34 5 4v16c0 1.66 1.34 3 3 3h8c1.66 0 3-1.34 3-3V4c0-1.66-1.34-3-3-3zm-2 20h-4v-1h4v1zm3.25-3H6.75V4h10.5v14z"/></symbol><symbol id="power-input" viewBox="0 0 24 24"><path d="M2 9v2h19V9H2zm0 6h5v-2H2v2zm7 0h5v-2H9v2zm7 0h5v-2h-5v2z"/></symbol><symbol id="tablet-android" viewBox="0 0 24 24"><path d="M18 0H6C4.34 0 3 1.34 3 3v18c0 1.66 1.34 3 3 3h12c1.66 0 3-1.34 3-3V3c0-1.66-1.34-3-3-3zm-4 22h-4v-1h4v1zm5.25-3H4.75V3h14.5v16z"/></symbol><symbol id="arrow-downward" viewBox="0 0 24 24"><path d="M20 12l-1.41-1.41L13 16.17V4h-2v12.17l-5.58-5.59L4 12l8 8 8-8z"/></symbol><symbol id="arrow-drop-down" viewBox="0 0 24 24"><path d="M7 10l5 5 5-5z"/></symbol><symbol id="arrow-upward" viewBox="0 0 24 24"><path d="M4 12l1.41 1.41L11 7.83V20h2V7.83l5.58 5.59L20 12l-8-8-8 8z"/></symbol><symbol id="cancel" viewBox="0 0 24 24"><path d="M12 2C6.47 2 2 6.47 2 12s4.47 10 10 10 10-4.47 10-10S17.53 2 12 2zm5 13.59L15.59 17 12 13.41 8.41 17 7 15.59 10.59 12 7 8.41 8.41 7 12 10.59 15.59 7 17 8.41 13.41 12 17 15.59z"/></symbol><symbol id="check" viewBox="0 0 24 24"><path d="M9 16.17L4.83 12l-1.42 1.41L9 19 21 7l-1.41-1.41z"/></symbol><symbol id="close" viewBox="0 0 24 24"><path d="M19 6.41L17.59 5 12 10.59 6.41 5 5 6.41 10.59 12 5 17.59 6.41 19 12 13.41 17.59 19 19 17.59 13.41 12z"/></symbol><symbol id="menu" viewBox="0 0 24 24"><path d="M3 18h18v-2H3v2zm0-5h18v-2H3v2zm0-7v2h18V6H3z"/></symbol><symbol id="brush" viewBox="0 0 24 24"><path d="M7 14c-1.66 0-3 1.34-3 3 0 1.31-1.16 2-2 2 .92 1.22 2.49 2 4 2 2.21 0 4-1.79 4-4 0-1.66-1.34-3-3-3zm13.71-9.37l-1.34-1.34a.996.996 0 0 0-1.41 0L9 12.25 11.75 15l8.96-8.96a.996.996 0 0 0 0-1.41z"/></symbol><symbol id="crop-landscape" viewBox="0 0 24 24"><path d="M19 5H5c-1.1 0-2 .9-2 2v10c0 1.1.9 2 2 2h14c1.1 0 2-.9 2-2V7c0-1.1-.9-2-2-2zm0 12H5V7h14v10z"/></symbol><symbol id="crop-portrait" viewBox="0 0 24 24"><path d="M17 3H7c-1.1 0-2 .9-2 2v14c0 1.1.9 2 2 2h10c1.1 0 2-.9 2-2V5c0-1.1-.9-2-2-2zm0 16H7V5h10v14z"/></symbol><symbol id="crop-square" viewBox="0 0 24 24"><path d="M18 4H6c-1.1 0-2 .9-2 2v12c0 1.1.9 2 2 2h12c1.1 0 2-.9 2-2V6c0-1.1-.9-2-2-2zm0 14H6V6h12v12z"/></symbol><symbol id="edit" viewBox="0 0 24 24"><path d="M3 17.25V21h3.75L17.81 9.94l-3.75-3.75L3 17.25zM20.71 7.04a.996.996 0 0 0 0-1.41l-2.34-2.34a.996.996 0 0 0-1.41 0l-1.83 1.83 3.75 3.75 1.83-1.83z"/></symbol><symbol id="flash-on" viewBox="0 0 24 24"><path d="M7 2v11h3v9l7-12h-4l4-8z"/></symbol><symbol id="gradient" viewBox="0 0 24 24"><path d="M11 9h2v2h-2zm-2 2h2v2H9zm4 0h2v2h-2zm2-2h2v2h-2zM7 9h2v2H7zm12-6H5c-1.1 0-2 .9-2 2v14c0 1.1.9 2 2 2h14c1.1 0 2-.9 2-2V5c0-1.1-.9-2-2-2zM9 18H7v-2h2v2zm4 0h-2v-2h2v2zm4 0h-2v-2h2v2zm2-7h-2v2h2v2h-2v-2h-2v2h-2v-2h-2v2H9v-2H7v2H5v-2h2v-2H5V5h14v6z"/></symbol><symbol id="grid-on" viewBox="0 0 24 24"><path d="M20 2H4c-1.1 0-2 .9-2 2v16c0 1.1.9 2 2 2h16c1.1 0 2-.9 2-2V4c0-1.1-.9-2-2-2zM8 20H4v-4h4v4zm0-6H4v-4h4v4zm0-6H4V4h4v4zm6 12h-4v-4h4v4zm0-6h-4v-4h4v4zm0-6h-4V4h4v4zm6 12h-4v-4h4v4zm0-6h-4v-4h4v4zm0-6h-4V4h4v4z"/></symbol><symbol id="image" viewBox="0 0 24 24"><path d="M21 19V5c0-1.1-.9-2-2-2H5c-1.1 0-2 .9-2 2v14c0 1.1.9 2 2 2h14c1.1 0 2-.9 2-2zM8.5 13.5l2.5 3.01L14.5 12l4.5 6H5l3.5-4.5z"/></symbol><symbol id="photo-size-select-actual" viewBox="0 0 24 24"><path d="M21 3H3C2 3 1 4 1 5v14c0 1.1.9 2 2 2h18c1 0 2-1 2-2V5c0-1-1-2-2-2zM5 17l3.5-4.5 2.5 3.01L14.5 11l4.5 6H5z"/></symbol><symbol id="photo-size-select-large" viewBox="0 0 24 24"><path d="M21 15h2v2h-2v-2zm0-4h2v2h-2v-2zm2 8h-2v2c1 0 2-1 2-2zM13 3h2v2h-2V3zm8 4h2v2h-2V7zm0-4v2h2c0-1-1-2-2-2zM1 7h2v2H1V7zm16-4h2v2h-2V3zm0 16h2v2h-2v-2zM3 3C2 3 1 4 1 5h2V3zm6 0h2v2H9V3zM5 3h2v2H5V3zm-4 8v8c0 1.1.9 2 2 2h12V11H1zm2 8l2.5-3.21 1.79 2.15 2.5-3.22L13 19H3z"/></symbol><symbol id="style" viewBox="0 0 24 24"><path d="M2.53 19.65l1.34.56v-9.03l-2.43 5.86c-.41 1.02.08 2.19 1.09 2.61zm19.5-3.7L17.07 3.98a2.013 2.013 0 0 0-1.81-1.23c-.26 0-.53.04-.79.15L7.1 5.95a1.999 1.999 0 0 0-1.08 2.6l4.96 11.97a1.998 1.998 0 0 0 2.6 1.08l7.36-3.05a1.994 1.994 0 0 0 1.09-2.6zM7.88 8.75c-.55 0-1-.45-1-1s.45-1 1-1 1 .45 1 1-.45 1-1 1zm-2 11c0 1.1.9 2 2 2h1.45l-3.45-8.34v6.34z"/></symbol><symbol id="view-comfy" viewBox="0 0 24 24"><path d="M3 9h4V5H3v4zm0 5h4v-4H3v4zm5 0h4v-4H8v4zm5 0h4v-4h-4v4zM8 9h4V5H8v4zm5-4v4h4V5h-4zm5 9h4v-4h-4v4zM3 19h4v-4H3v4zm5 0h4v-4H8v4zm5 0h4v-4h-4v4zm5 0h4v-4h-4v4zm0-14v4h4V5h-4z"/></symbol><symbol id="people" viewBox="0 0 24 24"><path d="M16 11c1.66 0 2.99-1.34 2.99-3S17.66 5 16 5c-1.66 0-3 1.34-3 3s1.34 3 3 3zm-8 0c1.66 0 2.99-1.34 2.99-3S9.66 5 8 5C6.34 5 5 6.34 5 8s1.34 3 3 3zm0 2c-2.33 0-7 1.17-7 3.5V19h14v-2.5c0-2.33-4.67-3.5-7-3.5zm8 0c-.29 0-.62.02-.97.05 1.16.84 1.97 1.97 1.97 3.45V19h6v-2.5c0-2.33-4.67-3.5-7-3.5z"/></symbol><symbol id="person" viewBox="0 0 24 24"><path d="M12 12c2.21 0 4-1.79 4-4s-1.79-4-4-4-4 1.79-4 4 1.79 4 4 4zm0 2c-2.67 0-8 1.34-8 4v2h16v-2c0-2.66-5.33-4-8-4z"/></symbol><symbol id="check-box" viewBox="0 0 24 24"><path d="M19 3H5a2 2 0 0 0-2 2v14a2 2 0 0 0 2 2h14a2 2 0 0 0 2-2V5a2 2 0 0 0-2-2zm-9 14l-5-5 1.41-1.41L10 14.17l7.59-7.59L19 8l-9 9z"/></symbol><symbol id="star" viewBox="0 0 24 24"><path d="M12 17.27L18.18 21l-1.64-7.03L22 9.24l-7.19-.61L12 2 9.19 8.63 2 9.24l5.46 4.73L5.82 21z"/></symbol><symbol id="star-border" viewBox="0 0 24 24"><path d="M22 9.24l-7.19-.62L12 2 9.19 8.63 2 9.24l5.46 4.73L5.82 21 12 17.27 18.18 21l-1.63-7.03L22 9.24zM12 15.4l-3.76 2.27 1-4.28-3.32-2.88 4.38-.38L12 6.1l1.71 4.04 4.38.38-3.32 2.88 1 4.28L12 15.4z"/></symbol><symbol id="ads-custom" viewBox="0 0 24 24"><path d="M22 22L16 3H8L2 22h6l6.527-5.594L16 22zM9.578 16L12 6.8l2.422 9.2z"/></symbol><symbol id="brush-custom" viewBox="0 0 32 32"><path d="M24.813 4.031c-.836 0-1.68.336-2.313.969L9.812 17.5l-.624.594c-.75.14-1.465.508-2.032 1.125-.832.91-.996 2.023-1.312 3.218-.317 1.196-.719 2.528-1.688 4l-1 1.563H5c3.914 0 6.496-1.871 7.813-3.188l.03-.03c.602-.618.938-1.395 1.063-2.188l.5-.469 12.688-12.5v-.031a3.254 3.254 0 0 0 0-4.594c-.633-.633-1.446-.969-2.282-.969zm0 1.969c.312 0 .609.14.875.406.535.535.535 1.246 0 1.782l-9.032 8.937-1.812-1.813 9.062-8.906c.266-.265.594-.406.907-.406zM13.405 16.719l1.813 1.812-1.5 1.469-1.813-1.813zM9.97 20.03c.504.016 1.05.211 1.469.594.777.71.796 1.953-.032 2.781-.867.867-2.406 1.985-4.656 2.407.48-1.051.816-2.032 1.031-2.844.332-1.254.578-2.114.844-2.407.348-.378.84-.546 1.344-.53z"/></symbol><symbol id="button-custom" viewBox="0 0 50 50"><path d="M4 12c-2.2 0-4 1.8-4 4v18c0 2.2 1.8 4 4 4h42c2.2 0 4-1.8 4-4V16c0-2.2-1.8-4-4-4zm0 2h42c1.117 0 2 .883 2 2v18c0 1.117-.883 2-2 2H4c-1.117 0-2-.883-2-2V16c0-1.117.883-2 2-2zm29.527 8.309c-1.691 0-2.78 1.136-2.78 2.968 0 1.836 1.077 2.973 2.78 2.973 1.692 0 2.77-1.137 2.77-2.973 0-1.832-1.078-2.968-2.77-2.968zm-26.613.156v5.633h2.703c1.207 0 1.973-.637 1.973-1.625 0-.72-.574-1.293-1.309-1.332v-.075a1.212 1.212 0 0 0 1.047-1.199c0-.875-.66-1.402-1.785-1.402zm6.102 0v3.687c0 1.266.964 2.098 2.43 2.098 1.464 0 2.425-.832 2.425-2.098v-3.687h-1.433V26c0 .656-.356 1.047-.993 1.047-.636 0-.996-.39-.996-1.047v-3.535zm6.28 0v1.148h1.626v4.485h1.426v-4.485h1.632v-1.148zm5.794 0v1.148h1.625v4.485h1.43v-4.485h1.628v-1.148zm12.672 0v5.633h1.36v-3.203h.073l2.356 3.203h1.136v-5.633h-1.359v3.172h-.074l-2.348-3.172zM8.348 23.473h.812c.488 0 .774.242.774.644 0 .399-.305.645-.829.645h-.757zm25.175.023c.79 0 1.317.695 1.317 1.781 0 1.09-.524 1.785-1.317 1.785-.8 0-1.32-.695-1.32-1.785 0-1.086.527-1.78 1.32-1.78zM8.348 25.63h.855c.598 0 .93.258.93.719 0 .476-.324.742-.918.742h-.867z"/></symbol><symbol id="documents-custom" viewBox="0 0 32 32"><path d="M14 2v5l2 2V4h7v5h5v13h-8v2h10V7.578l-.223-.266-4.804-5.074-.25-.238zm11.2 2.906l2.05 2.172H25.2zM2 8v22h16V13.578l-.223-.265L13 8zm2 2h7v5h5v13H4zm9.2.906l2.05 2.172H13.2zM20 12v2h6v-2zm0 4v2h6v-2zM6 18v2h8v-2zm0 4v2h8v-2z"/></symbol><symbol id="drop-custom" viewBox="0 0 48 48"><path stroke="#E0E0E0" d="M24 44c-7.168 0-13-5.816-13-12.971C11 24 24 4 24 4s13 20 13 27.029C37 38.184 31.168 44 24 44z"/></symbol><symbol id="facebook-custom" viewBox="0 0 24 24"><title>Facebook icon</title><path d="M22.676 0H1.324C.593 0 0 .593 0 1.324v21.352C0 23.408.593 24 1.324 24h11.494v-9.294H9.689v-3.621h3.129V8.41c0-3.099 1.894-4.785 4.659-4.785 1.325 0 2.464.097 2.796.141v3.24h-1.921c-1.5 0-1.792.721-1.792 1.771v2.311h3.584l-.465 3.63H16.56V24h6.115c.733 0 1.325-.592 1.325-1.324V1.324C24 .593 23.408 0 22.676 0"/></symbol><symbol id="form-custom" viewBox="0 0 24 24"><path d="M20 2H4c-1.105 0-2 .895-2 2v16c0 1.105.895 2 2 2h16c1.105 0 2-.895 2-2V4c0-1.105-.895-2-2-2zM8 10H4V8h4zm11 0h-8V8h8zm1 1H10V7h10zM8 16H4v-2h4zm11 0h-8v-2h8zm1 1H10v-4h10z"/></symbol><symbol id="google-custom" viewBox="0 0 24 24"><title>Google icon</title><path d="M12.24 10.285V14.4h6.806c-.275 1.765-2.056 5.174-6.806 5.174-4.095 0-7.439-3.389-7.439-7.574s3.345-7.574 7.439-7.574c2.33 0 3.891.989 4.785 1.849l3.254-3.138C18.189 1.186 15.479 0 12.24 0c-6.635 0-12 5.365-12 12s5.365 12 12 12c6.926 0 11.52-4.869 11.52-11.726 0-.788-.085-1.39-.189-1.989H12.24z"/></symbol><symbol id="header-custom" viewBox="0 0 24 24"><path d="M5 2v20h3v-9h8v9h3V2h-3v8H8V2z"/></symbol><symbol id="puzzle-custom" viewBox="0 0 32 32"><path d="M17 3c-2.21 0-4 1.79-4 4H7v5c-2.21 0-4 1.79-4 4s1.79 4 4 4v5h6c0 2.21 1.79 4 4 4s4-1.79 4-4h6v-7h-2c-1.191 0-2-.809-2-2 0-1.191.809-2 2-2h2V7h-6c0-2.21-1.79-4-4-4zm0 2c1.191 0 2 .809 2 2v2h6v3c-2.21 0-4 1.79-4 4s1.79 4 4 4v3h-6v2c0 1.191-.809 2-2 2-1.191 0-2-.809-2-2v-2H9v-5H7c-1.191 0-2-.809-2-2 0-1.191.809-2 2-2h2V9h6V7c0-1.191.809-2 2-2z"/></symbol><symbol id="settings-custom" viewBox="0 0 32 32"><path d="M13.188 3l-.157.813-.594 2.968a9.939 9.939 0 0 0-2.593 1.532l-2.906-1-.782-.25-.406.718-2 3.438-.406.719.594.53 2.25 1.97C6.104 14.948 6 15.46 6 16c0 .54.105 1.05.188 1.563l-2.25 1.968-.594.532.406.718 2 3.438.406.718.782-.25 2.906-1a9.939 9.939 0 0 0 2.594 1.532l.593 2.968.156.813h5.626l.156-.813.593-2.968a9.939 9.939 0 0 0 2.594-1.532l2.907 1 .78.25.407-.718 2-3.438.406-.718-.593-.532-2.25-1.968C25.895 17.05 26 16.538 26 16c0-.54-.105-1.05-.188-1.563l2.25-1.968.594-.531-.406-.72-2-3.437-.406-.718-.782.25-2.906 1a9.939 9.939 0 0 0-2.593-1.532l-.594-2.968L18.812 3zm1.624 2h2.376l.5 2.594.125.593.562.188a8.017 8.017 0 0 1 3.031 1.75l.438.406.562-.187 2.532-.875 1.187 2.031-2 1.781-.469.375.157.594c.128.57.187 1.152.187 1.75 0 .598-.059 1.18-.188 1.75l-.125.594.438.375 2 1.781-1.188 2.031-2.53-.875-.563-.187-.438.406a8.017 8.017 0 0 1-3.031 1.75l-.563.188-.125.593-.5 2.594h-2.375l-.5-2.594-.124-.593-.563-.188a8.017 8.017 0 0 1-3.031-1.75l-.438-.406-.562.187-2.531.875L5.875 20.5l2-1.781.469-.375-.156-.594A7.901 7.901 0 0 1 8 16c0-.598.059-1.18.188-1.75l.156-.594-.469-.375-2-1.781 1.188-2.031 2.53.875.563.187.438-.406a8.017 8.017 0 0 1 3.031-1.75l.563-.188.124-.593zM16 11c-2.75 0-5 2.25-5 5s2.25 5 5 5 5-2.25 5-5-2.25-5-5-5zm0 2c1.668 0 3 1.332 3 3s-1.332 3-3 3-3-1.332-3-3 1.332-3 3-3z"/></symbol><symbol id="shield-custom" viewBox="0 0 50 50"><path d="M25 0c-2.453 0-4.523 1.355-7.594 2.938-3.07 1.582-7.191 3.492-13.625 4.906L3 8.03v.781c0 15.32 5.371 25.56 10.75 31.907 5.379 6.347 10.844 8.875 10.844 8.875l.437.218.438-.218S47 38.469 47 8.812v-.78l-.781-.188C39.785 6.43 35.664 4.52 32.594 2.937 29.524 1.355 27.454 0 25 0zm0 2c1.645 0 3.55 1.105 6.688 2.719 2.98 1.531 7.171 3.41 13.25 4.843-.368 27.118-18.684 37.29-19.97 37.97-.62-.302-4.948-2.466-9.718-8.094C10.223 33.504 5.246 23.96 5.062 9.561c6.079-1.433 10.27-3.312 13.25-4.843C21.45 3.105 23.355 2 25 2zm7.688 12.625l-.532.844-8.125 12.625-5.375-4.844-.718-.656-1.344 1.468.75.688 6.187 5.625.875.781.657-1 8.78-13.625.532-.843z"/></symbol><symbol id="source-code-custom" viewBox="0 0 32 32"><path d="M18 5l-6 22h2l6-22zM7.937 6.406l-6.75 9L.75 16l.438.594 6.75 9 1.625-1.188L3.25 16l6.313-8.406zm16.125 0l-1.625 1.188L28.75 16l-6.313 8.406 1.625 1.188 6.75-9L31.25 16l-.438-.594z"/></symbol><symbol id="twitter-custom" viewBox="0 0 24 24"><title>Twitter icon</title><path d="M23.954 4.569a10 10 0 0 1-2.825.775 4.958 4.958 0 0 0 2.163-2.723c-.951.555-2.005.959-3.127 1.184a4.92 4.92 0 0 0-8.384 4.482C7.691 8.094 4.066 6.13 1.64 3.161a4.822 4.822 0 0 0-.666 2.475c0 1.71.87 3.213 2.188 4.096a4.904 4.904 0 0 1-2.228-.616v.061a4.923 4.923 0 0 0 3.946 4.827 4.996 4.996 0 0 1-2.212.085 4.937 4.937 0 0 0 4.604 3.417 9.868 9.868 0 0 1-6.102 2.105c-.39 0-.779-.023-1.17-.067a13.995 13.995 0 0 0 7.557 2.209c9.054 0 13.999-7.496 13.999-13.986 0-.209 0-.42-.015-.63a9.936 9.936 0 0 0 2.46-2.548l-.047-.02z"/></symbol><symbol id="web-design-custom" viewBox="0 0 32 32"><path d="M4 5v8h24V5zm2 2h20v4H6zm2 1c-.55 0-1 .45-1 1s.45 1 1 1 1-.45 1-1-.45-1-1-1zm3 0c-.55 0-1 .45-1 1s.45 1 1 1 1-.45 1-1-.45-1-1-1zm3 0c-.55 0-1 .45-1 1s.45 1 1 1 1-.45 1-1-.45-1-1-1zM4 14v13h24V14h-2v11H6V14zm4 1v8h8v-8zm10 0v2h6v-2zm-8 2h4v4h-4zm8 1v2h6v-2zm0 3v2h6v-2z"/></symbol></svg>